<svg width="206" height="176" viewBox="0 0 206 176" fill="none" xmlns="http://www.w3.org/2000/svg">
<path d="M160.781 145.443H54.3624C53.0221 145.442 51.7373 144.94 50.7899 144.047C49.8426 143.155 49.3101 141.946 49.3095 140.685V4.75451C49.3111 3.494 49.844 2.28556 50.7912 1.39424C51.7385 0.502932 53.0228 0.00152737 54.3624 7.62939e-06H160.781C162.12 0.001644 163.405 0.503085 164.352 1.39437C165.299 2.28566 165.832 3.49404 165.834 4.75451V140.686C165.833 141.947 165.3 143.156 164.353 144.048C163.406 144.94 162.121 145.442 160.781 145.443Z" fill="#F2F2F2"/>
<path d="M84.9461 53.7179C84.7132 53.7342 84.489 53.8083 84.2964 53.9326C85.2754 53.8752 86.2485 53.748 87.2071 53.5523L84.9461 53.7179Z" fill="#2F2E41"/>
<path d="M83.0105 16.273C78.5391 16.2737 74.193 17.6633 70.6467 20.2259C67.1005 22.7886 64.5524 26.381 63.3979 30.4457C62.2435 34.5103 62.5472 38.8199 64.262 42.7055C65.9768 46.5911 69.0068 49.8355 72.8817 51.935C73.9104 52.4957 74.9902 52.9687 76.1083 53.3486L76.2961 53.41C78.4532 54.1227 80.7233 54.4856 83.0096 54.483C83.4523 54.483 83.8936 54.4693 84.3292 54.4389C85.3357 54.3801 86.3361 54.2497 87.3217 54.0488C87.8733 53.9357 88.4141 53.801 88.9263 53.6539C89.0507 53.6199 89.1676 53.5854 89.2953 53.5474C93.892 52.1396 97.8042 49.2349 100.328 45.3556C102.853 41.4764 103.823 36.8771 103.066 32.3846C102.308 27.8922 99.8726 23.8014 96.1964 20.8477C92.5201 17.8941 87.8446 16.2713 83.0105 16.2712V16.273ZM94.7895 49.6901C93.0377 50.962 91.066 51.9402 88.961 52.5818L88.6136 52.6851C88.1277 52.8265 87.6165 52.9502 87.0902 53.0566C86.1577 53.2482 85.211 53.3724 84.2584 53.4281C83.8438 53.4555 83.4293 53.4692 83.0082 53.4692C80.8442 53.4699 78.6957 53.1264 76.6534 52.4532L76.4741 52.3945C75.362 52.0185 74.2903 51.5443 73.2732 50.9782C69.7307 49.0159 66.9504 46.0362 65.3411 42.4769C63.7317 38.9176 63.3781 34.9665 64.3322 31.2041C65.2863 27.4417 67.4977 24.0664 70.6416 21.5743C73.7855 19.0822 77.696 17.6046 81.7985 17.3587C85.901 17.1129 89.9792 18.1116 93.4337 20.2083C96.8882 22.3049 99.5369 25.3889 100.991 29.007C102.444 32.6251 102.626 36.5866 101.51 40.3092C100.393 44.0319 98.0375 47.3194 94.7881 49.6888L94.7895 49.6901Z" fill="#CCCCCC"/>
<path d="M140.18 35.3034H110.068C109.436 35.3034 108.829 35.067 108.382 34.6464C107.935 34.2257 107.684 33.6551 107.684 33.0602C107.684 32.4653 107.935 31.8947 108.382 31.474C108.829 31.0533 109.436 30.817 110.068 30.817H140.18C140.812 30.817 141.419 31.0533 141.866 31.474C142.313 31.8947 142.564 32.4653 142.564 33.0602C142.564 33.6551 142.313 34.2257 141.866 34.6464C141.419 35.067 140.812 35.3034 140.18 35.3034Z" fill="#E6E6E6"/>
<path d="M150.006 42.8687H110.068C109.435 42.8687 108.829 42.6323 108.382 42.2117C107.935 41.791 107.684 41.2204 107.684 40.6255C107.684 40.0306 107.935 39.46 108.382 39.0393C108.829 38.6187 109.435 38.3823 110.068 38.3823H150.007C150.639 38.3823 151.246 38.6187 151.693 39.0393C152.14 39.46 152.391 40.0306 152.391 40.6255C152.391 41.2204 152.14 41.791 151.693 42.2117C151.246 42.6323 150.639 42.8687 150.007 42.8687H150.006Z" fill="#E6E6E6"/>
<path d="M140.134 71.8864H65.1368C64.5045 71.8864 63.8982 71.6501 63.4511 71.2294C63.004 70.8088 62.7528 70.2382 62.7528 69.6433C62.7528 69.0483 63.004 68.4778 63.4511 68.0571C63.8982 67.6364 64.5045 67.4001 65.1368 67.4001H140.135C140.767 67.4001 141.373 67.6364 141.821 68.0571C142.268 68.4778 142.519 69.0483 142.519 69.6433C142.519 70.2382 142.268 70.8088 141.821 71.2294C141.373 71.6501 140.767 71.8864 140.135 71.8864H140.134Z" fill="#E6E6E6"/>
<path d="M149.961 79.4496H65.1368C64.5045 79.4496 63.8982 79.2132 63.4511 78.7926C63.004 78.3719 62.7528 77.8013 62.7528 77.2064C62.7528 76.6115 63.004 76.0409 63.4511 75.6202C63.8982 75.1995 64.5045 74.9632 65.1368 74.9632H149.962C150.594 74.9632 151.2 75.1995 151.648 75.6202C152.095 76.0409 152.346 76.6115 152.346 77.2064C152.346 77.8013 152.095 78.3719 151.648 78.7926C151.2 79.2132 150.594 79.4496 149.962 79.4496H149.961Z" fill="#E6E6E6"/>
<path d="M205.174 52.8556C205.272 52.004 205.089 51.1447 204.65 50.3944C204.211 49.644 203.537 49.0391 202.72 48.6617L120.705 10.9447C119.652 10.4597 118.437 10.3884 117.327 10.7463C116.218 11.1043 115.305 11.8622 114.79 12.8534L84.0236 72.0742C83.5103 73.066 83.4359 74.2089 83.8167 75.2522C84.1975 76.2956 85.0024 77.1543 86.055 77.6402L168.069 115.357C169.123 115.84 170.337 115.91 171.446 115.552C172.555 115.194 173.468 114.436 173.984 113.446L204.747 54.2277C204.973 53.797 205.117 53.3326 205.174 52.8552V52.8556Z" fill="white"/>
<path d="M205.174 52.8556C205.272 52.004 205.089 51.1447 204.65 50.3944C204.211 49.644 203.537 49.0391 202.72 48.6617L120.705 10.9447C119.652 10.4597 118.437 10.3884 117.327 10.7463C116.218 11.1043 115.305 11.8622 114.79 12.8534L84.0236 72.0742C83.5103 73.066 83.4359 74.2089 83.8167 75.2522C84.1975 76.2956 85.0024 77.1543 86.055 77.6402L168.069 115.357C169.123 115.84 170.337 115.91 171.446 115.552C172.555 115.194 173.468 114.436 173.984 113.446L204.747 54.2277C204.973 53.797 205.117 53.3326 205.174 52.8552V52.8556ZM173.523 113.232C173.067 114.106 172.262 114.774 171.283 115.09C170.305 115.406 169.233 115.344 168.303 114.918L86.2888 77.2015C85.3599 76.7728 84.6495 76.015 84.3135 75.0943C83.9775 74.1735 84.0433 73.165 84.4964 72.2897L115.256 13.0699C115.712 12.1959 116.517 11.5276 117.496 11.2115C118.474 10.8954 119.546 10.9574 120.476 11.3838L202.49 49.1008C203.419 49.5295 204.129 50.2873 204.465 51.2081C204.801 52.1289 204.735 53.1374 204.282 54.0126L173.523 113.232Z" fill="#3F3D56"/>
<path d="M196.225 55.5507L174.748 96.9038C174.604 97.1797 174.35 97.3908 174.042 97.4907C173.733 97.5906 173.395 97.5711 173.102 97.4365L98.4974 63.1271C98.4442 63.1029 98.3934 63.0746 98.3453 63.0423C98.101 62.8859 97.9247 62.652 97.8486 62.3834C97.7725 62.1147 97.8017 61.8293 97.9308 61.5792L119.41 20.2262C119.553 19.9503 119.807 19.7392 120.115 19.6393C120.424 19.5394 120.762 19.5589 121.056 19.6934L195.658 54.0029C195.951 54.1377 196.176 54.3766 196.282 54.667C196.388 54.9574 196.367 55.2756 196.224 55.5516L196.225 55.5507Z" fill="#E6E6E6"/>
<path d="M130.73 53.4476C136.696 53.4476 141.533 48.8964 141.533 43.2822C141.533 37.6679 136.696 33.1167 130.73 33.1167C124.763 33.1167 119.926 37.6679 119.926 43.2822C119.926 48.8964 124.763 53.4476 130.73 53.4476Z" fill="#DC7702"/>
<path d="M146.55 85.4303L98.9321 63.5335C98.8721 63.506 98.8149 63.4733 98.7613 63.4359L140.347 37.0854C140.603 36.92 140.901 36.8216 141.211 36.8001C141.521 36.7787 141.831 36.835 142.11 36.9634C142.389 37.0917 142.627 37.2875 142.8 37.5306C142.972 37.7738 143.073 38.0557 143.092 38.3474L145.411 69.9322L145.523 71.4438L146.55 85.4303Z" fill="#090814"/>
<path opacity="0.2" d="M146.551 85.4299L130.293 77.9534L143.94 70.7154L144.923 70.1946L145.414 69.9331L145.526 71.4447L146.551 85.4299Z" fill="black"/>
<path d="M173.065 97.6221L131.88 78.6818L145.527 71.4443L146.509 70.9226L164.293 61.4904C164.59 61.3582 164.912 61.2861 165.241 61.2788C165.569 61.2715 165.895 61.3292 166.198 61.4481C166.501 61.567 166.774 61.7445 166.999 61.9691C167.224 62.1936 167.397 62.4602 167.506 62.7516C167.531 62.8319 167.55 62.9137 167.564 62.9963L173.065 97.6221Z" fill="#090814"/>
<path d="M192.377 176.004H12.0588C8.86175 176.001 5.79663 174.804 3.53594 172.677C1.27525 170.55 0.00361112 167.666 7.62939e-06 164.657V71.4787C0.00361112 68.4704 1.27525 65.5864 3.53594 63.4592C5.79663 61.332 8.86175 60.1355 12.0588 60.1321H34.1667C37.1666 60.1298 40.0592 61.182 42.2773 63.0825L66.2523 79.1916C67.8152 80.5357 69.8564 81.2803 71.9737 81.2788H193.497C195.096 81.2785 196.678 81.5771 198.152 82.1574C199.627 82.7376 200.964 83.5878 202.086 84.6587C203.209 85.7295 204.093 86.9996 204.689 88.395C205.285 89.7905 205.58 91.2834 205.558 92.7872L204.438 164.819C204.38 167.797 203.085 170.635 200.831 172.725C198.576 174.815 195.542 175.992 192.377 176.004Z" fill="#DC7702"/>
<path d="M83.7175 47.6864H83.7372C87.0549 47.5158 90.1795 46.1644 92.4774 43.9063C94.7753 41.6482 96.0745 38.6523 96.1117 35.5261C96.1488 32.3999 94.9211 29.3774 92.6774 27.0715C90.4337 24.7656 87.342 23.3489 84.0292 23.1086C83.9885 23.1057 83.9475 23.1106 83.9089 23.1232C83.8703 23.1357 83.8348 23.1556 83.8046 23.1816C83.7744 23.2075 83.7502 23.239 83.7335 23.2741C83.7167 23.3091 83.7078 23.3471 83.7072 23.3855L83.4213 47.4054C83.4208 47.4424 83.4281 47.4791 83.4428 47.5135C83.4575 47.5478 83.4792 47.5791 83.5067 47.6056C83.5342 47.6321 83.5669 47.6532 83.6031 47.6677C83.6393 47.6822 83.6782 47.6899 83.7175 47.6903V47.6864Z" fill="#DC7702"/>
<path d="M73.4535 27.0768C73.5553 27.0778 73.6525 27.1167 73.7239 27.185L82.5115 35.6417C82.5469 35.6755 82.5749 35.7156 82.5938 35.7597C82.6126 35.8037 82.622 35.8509 82.6213 35.8984L82.4847 47.3913C82.4843 47.4406 82.4731 47.4893 82.4517 47.5343C82.4302 47.5793 82.3991 47.6197 82.3603 47.6528C82.3217 47.6869 82.2759 47.7132 82.226 47.73C82.1761 47.7468 82.123 47.7538 82.0701 47.7504C79.6264 47.5791 77.2818 46.7698 75.3 45.4136C73.3182 44.0573 71.7776 42.2079 70.8516 40.073C69.9255 37.9382 69.6506 35.6026 70.0577 33.3288C70.4649 31.0551 71.5379 28.9332 73.1563 27.2018C73.1913 27.1643 73.2341 27.1341 73.2821 27.113C73.3301 27.0919 73.3822 27.0803 73.4352 27.079L73.4535 27.0768Z" fill="#E6E6E6"/>
<path d="M82.3875 23.007C82.4853 23.007 82.5794 23.0419 82.6509 23.1046C82.689 23.1387 82.7192 23.1798 82.7396 23.2254C82.7599 23.2711 82.77 23.3202 82.7692 23.3696L82.6457 33.74C82.6449 33.8113 82.6216 33.8808 82.5788 33.9397C82.536 33.9985 82.4756 34.0442 82.4053 34.0708C82.335 34.0974 82.2579 34.1038 82.1837 34.0892C82.1095 34.0746 82.0416 34.0396 81.9885 33.9887L74.3182 26.6116C74.2818 26.5765 74.2534 26.5348 74.2347 26.4891C74.2159 26.4433 74.2072 26.3945 74.2092 26.3455C74.2111 26.2965 74.2236 26.2484 74.2459 26.204C74.2682 26.1597 74.2998 26.1201 74.3389 26.0877C76.5693 24.2407 79.3966 23.1555 82.3636 23.0078L82.3875 23.007Z" fill="#090814"/>
<path d="M102.783 130.42C95.7656 130.42 90.0511 124.711 90.0511 117.694C90.0511 110.678 95.7623 104.969 102.783 104.969C109.803 104.969 115.514 110.678 115.514 117.694C115.514 124.711 109.803 130.42 102.783 130.42ZM102.783 108.184C97.6467 108.184 93.4689 112.45 93.4689 117.694C93.4689 122.938 97.6472 127.203 102.783 127.203C107.918 127.203 112.097 122.937 112.097 117.694C112.097 112.451 107.918 108.184 102.783 108.184V108.184Z" fill="#D6D6E3"/>
<path d="M114.838 152.597H90.722C88.596 152.594 86.5577 151.799 85.0545 150.384C83.5512 148.969 82.7057 147.051 82.7035 145.051V122.796C82.7047 121.425 83.2838 120.111 84.3136 119.142C85.3435 118.173 86.7399 117.629 88.1963 117.627H117.368C118.824 117.628 120.221 118.173 121.251 119.142C122.281 120.111 122.86 121.425 122.861 122.796V145.05C122.859 147.052 122.012 148.97 120.508 150.385C119.004 151.8 116.965 152.595 114.838 152.597Z" fill="#F2F2F2"/>
<path d="M107.48 130.289C107.481 129.503 107.259 128.731 106.837 128.053C106.415 127.374 105.809 126.814 105.08 126.43C104.352 126.045 103.527 125.85 102.692 125.865C101.857 125.88 101.041 126.104 100.329 126.514C99.6163 126.925 99.0329 127.506 98.6386 128.199C98.2444 128.892 98.0536 129.671 98.0859 130.457C98.1182 131.242 98.3724 132.005 98.8223 132.667C99.2723 133.33 99.9017 133.867 100.646 134.224V141.142H104.92V134.224C105.691 133.854 106.338 133.291 106.79 132.596C107.241 131.902 107.48 131.103 107.48 130.289Z" fill="#DC7702"/>
</svg>
